<?xml version="1.0" standalone="yes"?>

<svg version="1.1" viewBox="0.0 0.0 871.010498687664 141.1233595800525" fill="none" stroke="none" stroke-linecap="square" stroke-miterlimit="10" xmlns="http://www.w3.org/2000/svg" xmlns:xlink="http://www.w3.org/1999/xlink"><clipPath id="p.0"><path d="m0 0l871.0105 0l0 141.12335l-871.0105 0l0 -141.12335z" clip-rule="nonzero"></path></clipPath><g clip-path="url(#p.0)"><path fill="#000000" fill-opacity="0.0" d="m0 0l871.0105 0l0 141.12335l-871.0105 0z" fill-rule="evenodd"></path><path fill="#cfe2f3" d="m31.001312 27.868767l250.77167 0l0 85.385826l-250.77167 0z" fill-rule="evenodd"></path><path stroke="#000000" stroke-width="1.0" stroke-linejoin="round" stroke-linecap="butt" d="m31.001312 27.868767l250.77167 0l0 85.385826l-250.77167 0z" fill-rule="evenodd"></path><path fill="#000000" d="m106.22698 69.60168l0 -17.1875l5.90625 0q2.015625 0 3.0625 0.25q1.484375 0.34375 2.515625 1.234375q1.359375 1.140625 2.03125 2.9375q0.6875 1.78125 0.6875 4.078125q0 1.953125 -0.46875 3.46875q-0.453125 1.515625 -1.171875 2.515625q-0.703125 0.984375 -1.5625 1.546875q-0.84375 0.5625 -2.046875 0.859375q-1.203125 0.296875 -2.765625 0.296875l-6.1875 0zm2.265625 -2.03125l3.671875 0q1.703125 0 2.65625 -0.3125q0.96875 -0.3125 1.546875 -0.890625q0.8125 -0.8125 1.265625 -2.171875q0.453125 -1.375 0.453125 -3.3125q0 -2.703125 -0.890625 -4.140625q-0.890625 -1.453125 -2.15625 -1.9375q-0.90625 -0.359375 -2.9375 -0.359375l-3.609375 0l0 13.125zm23.316414 -1.984375l2.171875 0.28125q-0.515625 1.90625 -1.90625 2.96875q-1.390625 1.046875 -3.5625 1.046875q-2.7343826 0 -4.3437576 -1.671875q-1.59375 -1.6875 -1.59375 -4.734375q0 -3.140625 1.609375 -4.875q1.625 -1.734375 4.2031326 -1.734375q2.5 0 4.078125 1.703125q1.59375 1.703125 1.59375 4.78125q0 0.1875 -0.015625 0.5625l-9.281258 0q0.109375 2.046875 1.15625 3.140625q1.046875 1.09375 2.6093826 1.09375q1.15625 0 1.96875 -0.609375q0.828125 -0.609375 1.3125 -1.953125zm-6.9375076 -3.40625l6.9531326 0q-0.140625 -1.5625 -0.796875 -2.359375q-1.0 -1.21875 -2.609375 -1.21875q-1.4531326 0 -2.4531326 0.984375q-0.984375 0.96875 -1.09375 2.59375zm19.878914 2.859375l2.078125 0.265625q-0.34375 2.15625 -1.75 3.375q-1.390625 1.203125 -3.4375 1.203125q-2.546875 0 -4.109375 -1.671875q-1.546875 -1.671875 -1.546875 -4.78125q0 -2.015625 0.671875 -3.53125q0.671875 -1.515625 2.03125 -2.265625q1.359375 -0.765625 2.96875 -0.765625q2.03125 0 3.3125 1.03125q1.296875 1.03125 1.65625 2.90625l-2.046875 0.328125q-0.296875 -1.265625 -1.046875 -1.890625q-0.734375 -0.640625 -1.796875 -0.640625q-1.59375 0 -2.59375 1.15625q-0.984375 1.140625 -0.984375 3.609375q0 2.5 0.953125 3.640625q0.96875 1.140625 2.515625 1.140625q1.234375 0 2.0625 -0.765625q0.84375 -0.765625 1.0625 -2.34375zm3.890625 -10.1875l0 -2.4375l2.109375 0l0 2.4375l-2.109375 0zm0 14.75l0 -12.453125l2.109375 0l0 12.453125l-2.109375 0zm4.4726562 -3.71875l2.09375 -0.328125q0.171875 1.25 0.96875 1.921875q0.8125 0.671875 2.25 0.671875q1.453125 0 2.15625 -0.59375q0.703125 -0.59375 0.703125 -1.390625q0 -0.71875 -0.625 -1.125q-0.421875 -0.28125 -2.15625 -0.71875q-2.3125 -0.578125 -3.21875 -1.0q-0.890625 -0.4375 -1.359375 -1.1875q-0.453125 -0.765625 -0.453125 -1.671875q0 -0.828125 0.375 -1.53125q0.390625 -0.71875 1.046875 -1.1875q0.484375 -0.359375 1.328125 -0.609375q0.859375 -0.265625 1.828125 -0.265625q1.46875 0 2.578125 0.421875q1.109375 0.421875 1.625 1.15625q0.53125 0.71875 0.734375 1.921875l-2.0625 0.28125q-0.140625 -0.96875 -0.8125 -1.5q-0.671875 -0.546875 -1.90625 -0.546875q-1.453125 0 -2.078125 0.484375q-0.625 0.484375 -0.625 1.125q0 0.40625 0.265625 0.734375q0.25 0.34375 0.8125 0.5625q0.3125 0.125 1.859375 0.546875q2.234375 0.59375 3.109375 0.984375q0.890625 0.375 1.390625 1.109375q0.515625 0.71875 0.515625 1.796875q0 1.046875 -0.625 1.984375q-0.609375 0.9375 -1.765625 1.453125q-1.15625 0.5 -2.625 0.5q-2.421875 0 -3.703125 -1.0q-1.265625 -1.015625 -1.625 -3.0zm12.859375 -11.03125l0 -2.4375l2.109375 0l0 2.4375l-2.109375 0zm0 14.75l0 -12.453125l2.109375 0l0 12.453125l-2.109375 0zm4.5351562 -6.21875q0 -3.46875 1.921875 -5.125q1.609375 -1.390625 3.921875 -1.390625q2.5625 0 4.1875 1.6875q1.625 1.6875 1.625 4.640625q0 2.40625 -0.71875 3.78125q-0.71875 1.375 -2.09375 2.140625q-1.375 0.765625 -3.0 0.765625q-2.625 0 -4.234375 -1.671875q-1.609375 -1.6875 -1.609375 -4.828125zm2.171875 0q0 2.390625 1.03125 3.578125q1.046875 1.1875 2.640625 1.1875q1.5625 0 2.609375 -1.1875q1.046875 -1.203125 1.046875 -3.65625q0 -2.3125 -1.0625 -3.5q-1.046875 -1.1875 -2.59375 -1.1875q-1.59375 0 -2.640625 1.1875q-1.03125 1.1875 -1.03125 3.578125zm11.957031 6.21875l0 -12.453125l1.90625 0l0 1.78125q1.375 -2.0625 3.953125 -2.0625q1.125 0 2.0625 0.40625q0.953125 0.40625 1.421875 1.0625q0.46875 0.65625 0.65625 1.5625q0.125 0.578125 0.125 2.046875l0 7.65625l-2.109375 0l0 -7.578125q0 -1.28125 -0.25 -1.921875q-0.25 -0.640625 -0.875 -1.015625q-0.625 -0.390625 -1.46875 -0.390625q-1.34375 0 -2.328125 0.859375q-0.984375 0.859375 -0.984375 3.25l0 6.796875l-2.109375 0zm12.503906 -3.71875l2.09375 -0.328125q0.171875 1.25 0.96875 1.921875q0.8125 0.671875 2.25 0.671875q1.453125 0 2.15625 -0.59375q0.703125 -0.59375 0.703125 -1.390625q0 -0.71875 -0.625 -1.125q-0.421875 -0.28125 -2.15625 -0.71875q-2.3125 -0.578125 -3.21875 -1.0q-0.890625 -0.4375 -1.359375 -1.1875q-0.453125 -0.765625 -0.453125 -1.671875q0 -0.828125 0.375 -1.53125q0.390625 -0.71875 1.046875 -1.1875q0.484375 -0.359375 1.328125 -0.609375q0.859375 -0.265625 1.828125 -0.265625q1.46875 0 2.578125 0.421875q1.109375 0.421875 1.625 1.15625q0.53125 0.71875 0.734375 1.921875l-2.0625 0.28125q-0.140625 -0.96875 -0.8125 -1.5q-0.671875 -0.546875 -1.90625 -0.546875q-1.453125 0 -2.078125 0.484375q-0.625 0.484375 -0.625 1.125q0 0.40625 0.265625 0.734375q0.25 0.34375 0.8125 0.5625q0.3125 0.125 1.859375 0.546875q2.234375 0.59375 3.109375 0.984375q0.890625 0.375 1.390625 1.109375q0.515625 0.71875 0.515625 1.796875q0 1.046875 -0.625 1.984375q-0.609375 0.9375 -1.765625 1.453125q-1.15625 0.5 -2.625 0.5q-2.421875 0 -3.703125 -1.0q-1.265625 -1.015625 -1.625 -3.0z" fill-rule="nonzero"></path><path fill="#000000" d="m49.695732 90.92168l-0.703125 -11.453125l1.5625 0l0.265625 5.65625q0.015625 0.40625 0.078125 2.203125q0.015625 0.5 0.015625 0.703125q0 0.140625 -0.015625 0.78125q0.953125 -1.953125 1.375 -2.75l3.484375 -6.59375l1.578125 0l0.390625 6.6875q0.0625 1.15625 0.078125 2.765625q0.140625 -0.390625 0.5 -1.1875q0.578125 -1.265625 0.84375 -1.8125l3.265625 -6.453125l1.5625 0l-5.828125 11.453125l-1.640625 0l-0.375 -6.9375q-0.0625 -0.890625 -0.09375 -2.1875q-0.46875 1.078125 -0.796875 1.6875l-3.96875 7.4375l-1.578125 0zm12.9296875 0l2.390625 -11.453125l1.421875 0l-0.921875 4.390625q0.796875 -0.765625 1.46875 -1.09375q0.6875 -0.328125 1.40625 -0.328125q1.03125 0 1.59375 0.546875q0.578125 0.53125 0.578125 1.421875q0 0.4375 -0.25 1.609375l-1.03125 4.90625l-1.40625 0l1.046875 -5.03125q0.234375 -1.09375 0.234375 -1.375q0 -0.40625 -0.28125 -0.65625q-0.28125 -0.265625 -0.8125 -0.265625q-0.765625 0 -1.46875 0.40625q-0.6875 0.40625 -1.09375 1.109375q-0.390625 0.6875 -0.71875 2.25l-0.734375 3.5625l-1.421875 0zm14.4921875 -1.03125q-0.734375 0.625 -1.421875 0.921875q-0.671875 0.296875 -1.4375 0.296875q-1.15625 0 -1.859375 -0.671875q-0.703125 -0.6875 -0.703125 -1.734375q0 -0.703125 0.3125 -1.234375q0.328125 -0.53125 0.84375 -0.859375q0.53125 -0.328125 1.28125 -0.46875q0.484375 -0.09375 1.8125 -0.140625q1.328125 -0.0625 1.90625 -0.28125q0.171875 -0.578125 0.171875 -0.96875q0 -0.484375 -0.359375 -0.765625q-0.5 -0.390625 -1.4375 -0.390625q-0.890625 0 -1.46875 0.390625q-0.5625 0.390625 -0.8125 1.125l-1.4375 -0.125q0.4375 -1.234375 1.390625 -1.890625q0.953125 -0.65625 2.390625 -0.65625q1.546875 0 2.4375 0.734375q0.6875 0.546875 0.6875 1.421875q0 0.65625 -0.1875 1.53125l-0.46875 2.0625q-0.21875 0.984375 -0.21875 1.609375q0 0.390625 0.171875 1.125l-1.421875 0q-0.125 -0.40625 -0.171875 -1.03125zm0.53125 -3.171875q-0.296875 0.109375 -0.640625 0.171875q-0.34375 0.0625 -1.140625 0.140625q-1.234375 0.109375 -1.75 0.28125q-0.5 0.15625 -0.765625 0.53125q-0.25 0.359375 -0.25 0.8125q0 0.59375 0.40625 0.984375q0.421875 0.375 1.171875 0.375q0.703125 0 1.34375 -0.375q0.65625 -0.375 1.03125 -1.03125q0.375 -0.671875 0.59375 -1.890625zm6.0859375 3.046875l-0.234375 1.171875q-0.515625 0.125 -0.984375 0.125q-0.84375 0 -1.34375 -0.421875q-0.375 -0.3125 -0.375 -0.84375q0 -0.28125 0.203125 -1.265625l1.0 -4.8125l-1.109375 0l0.21875 -1.09375l1.125 0l0.421875 -2.046875l1.625 -0.96875l-0.640625 3.015625l1.390625 0l-0.234375 1.09375l-1.375 0l-0.96875 4.578125q-0.171875 0.875 -0.171875 1.046875q0 0.25 0.140625 0.390625q0.140625 0.125 0.46875 0.125q0.46875 0 0.84375 -0.09375zm4.875 4.34375l2.40625 -11.484375l1.3125 0l-0.25 1.15625q0.734375 -0.765625 1.296875 -1.046875q0.578125 -0.296875 1.21875 -0.296875q1.1875 0 1.96875 0.859375q0.78125 0.859375 0.78125 2.46875q0 1.296875 -0.4375 2.375q-0.421875 1.0625 -1.046875 1.71875q-0.625 0.640625 -1.265625 0.953125q-0.640625 0.296875 -1.3125 0.296875q-1.484375 0 -2.3125 -1.515625l-0.9375 4.515625l-1.421875 0zm2.8125 -6.578125q0 0.921875 0.125 1.28125q0.203125 0.515625 0.640625 0.828125q0.453125 0.3125 1.03125 0.3125q1.21875 0 1.96875 -1.375q0.75 -1.375 0.75 -2.796875q0 -1.0625 -0.5 -1.625q-0.5 -0.578125 -1.25 -0.578125q-0.546875 0 -1.015625 0.28125q-0.453125 0.28125 -0.84375 0.859375q-0.390625 0.5625 -0.65625 1.390625q-0.25 0.8125 -0.25 1.421875zm6.6796875 3.390625l2.390625 -11.453125l1.421875 0l-2.390625 11.453125l-1.421875 0zm9.2578125 -1.03125q-0.734375 0.625 -1.421875 0.921875q-0.671875 0.296875 -1.4375 0.296875q-1.15625 0 -1.859375 -0.671875q-0.703125 -0.6875 -0.703125 -1.734375q0 -0.703125 0.3125 -1.234375q0.328125 -0.53125 0.84375 -0.859375q0.53125 -0.328125 1.28125 -0.46875q0.484375 -0.09375 1.8125 -0.140625q1.328125 -0.0625 1.90625 -0.28125q0.171875 -0.578125 0.171875 -0.96875q0 -0.484375 -0.359375 -0.765625q-0.5 -0.390625 -1.4375 -0.390625q-0.890625 0 -1.46875 0.390625q-0.5625 0.390625 -0.8125 1.125l-1.4375 -0.125q0.4375 -1.234375 1.390625 -1.890625q0.953125 -0.65625 2.390625 -0.65625q1.546875 0 2.4375 0.734375q0.6875 0.546875 0.6875 1.421875q0 0.65625 -0.1875 1.53125l-0.46875 2.0625q-0.21875 0.984375 -0.21875 1.609375q0 0.390625 0.171875 1.125l-1.421875 0q-0.125 -0.40625 -0.171875 -1.03125zm0.53125 -3.171875q-0.296875 0.109375 -0.640625 0.171875q-0.34375 0.0625 -1.140625 0.140625q-1.234375 0.109375 -1.75 0.28125q-0.5 0.15625 -0.765625 0.53125q-0.25 0.359375 -0.25 0.8125q0 0.59375 0.40625 0.984375q0.421875 0.375 1.171875 0.375q0.703125 0 1.34375 -0.375q0.65625 -0.375 1.03125 -1.03125q0.375 -0.671875 0.59375 -1.890625zm2.2421875 7.40625l0.09375 -1.328125q0.4375 0.125 0.84375 0.125q0.4375 0 0.703125 -0.1875q0.34375 -0.265625 0.75 -0.96875l0.453125 -0.8125l-1.390625 -8.328125l1.390625 0l0.625 4.1875q0.1875 1.25 0.328125 2.484375l3.703125 -6.671875l1.484375 0l-5.296875 9.40625q-0.765625 1.375 -1.359375 1.8125q-0.59375 0.453125 -1.359375 0.453125q-0.5 0 -0.96875 -0.171875zm14.625 -6.03125l1.375 0.140625q-0.296875 1.03125 -1.359375 1.953125q-1.0625 0.921875 -2.546875 0.921875q-0.921875 0 -1.6875 -0.421875q-0.765625 -0.4375 -1.171875 -1.25q-0.40625 -0.8125 -0.40625 -1.84375q0 -1.359375 0.625 -2.640625q0.640625 -1.28125 1.640625 -1.890625q1.0 -0.625 2.15625 -0.625q1.484375 0 2.375 0.921875q0.890625 0.921875 0.890625 2.515625q0 0.609375 -0.109375 1.25l-6.109375 0q-0.03125 0.234375 -0.03125 0.4375q0 1.15625 0.53125 1.78125q0.53125 0.609375 1.3125 0.609375q0.71875 0 1.421875 -0.46875q0.703125 -0.484375 1.09375 -1.390625zm-4.109375 -2.046875l4.65625 0q0.015625 -0.21875 0.015625 -0.3125q0 -1.0625 -0.53125 -1.625q-0.53125 -0.578125 -1.375 -0.578125q-0.90625 0 -1.65625 0.625q-0.734375 0.625 -1.109375 1.890625zm6.9140625 4.875l1.7343826 -8.296875l1.25 0l-0.34375 1.6875q0.640625 -0.953125 1.25 -1.40625q0.609375 -0.46875 1.25 -0.46875q0.421875 0 1.046875 0.296875l-0.578125 1.3125q-0.375 -0.265625 -0.8125 -0.265625q-0.734375 0 -1.515625 0.828125q-0.78125 0.828125 -1.234375 2.984375l-0.703125 3.328125l-1.3437576 0zm5.4687576 -2.84375l1.40625 -0.078125q0 0.609375 0.1875 1.046875q0.1875 0.421875 0.6875 0.703125q0.515625 0.265625 1.1875 0.265625q0.9375 0 1.40625 -0.375q0.46875 -0.375 0.46875 -0.890625q0 -0.359375 -0.28125 -0.6875q-0.296875 -0.328125 -1.421875 -0.8125q-1.109375 -0.484375 -1.421875 -0.671875q-0.53125 -0.328125 -0.796875 -0.75q-0.265625 -0.4375 -0.265625 -1.0q0 -0.984375 0.78125 -1.6875q0.78125 -0.703125 2.1875 -0.703125q1.5625 0 2.375 0.71875q0.828125 0.71875 0.859375 1.90625l-1.390625 0.09375q-0.03125 -0.75 -0.53125 -1.1875q-0.5 -0.4375 -1.40625 -0.4375q-0.734375 0 -1.140625 0.34375q-0.40625 0.328125 -0.40625 0.71875q0 0.390625 0.34375 0.6875q0.234375 0.203125 1.21875 0.625q1.625 0.703125 2.046875 1.109375q0.671875 0.640625 0.671875 1.578125q0 0.609375 -0.390625 1.203125q-0.375 0.59375 -1.15625 0.953125q-0.765625 0.359375 -1.828125 0.359375q-1.4375 0 -2.4375 -0.71875q-1.015625 -0.703125 -0.953125 -2.3125zm12.4453125 0l1.40625 -0.078125q0 0.609375 0.1875 1.046875q0.1875 0.421875 0.6875 0.703125q0.515625 0.265625 1.1875 0.265625q0.9375 0 1.40625 -0.375q0.46875 -0.375 0.46875 -0.890625q0 -0.359375 -0.28125 -0.6875q-0.296875 -0.328125 -1.421875 -0.8125q-1.109375 -0.484375 -1.421875 -0.671875q-0.53125 -0.328125 -0.796875 -0.75q-0.265625 -0.4375 -0.265625 -1.0q0 -0.984375 0.78125 -1.6875q0.78125 -0.703125 2.1875 -0.703125q1.5625 0 2.375 0.71875q0.828125 0.71875 0.859375 1.90625l-1.390625 0.09375q-0.03125 -0.75 -0.53125 -1.1875q-0.5 -0.4375 -1.40625 -0.4375q-0.734375 0 -1.140625 0.34375q-0.40625 0.328125 -0.40625 0.71875q0 0.390625 0.34375 0.6875q0.234375 0.203125 1.21875 0.625q1.625 0.703125 2.046875 1.109375q0.671875 0.640625 0.671875 1.578125q0 0.609375 -0.390625 1.203125q-0.375 0.59375 -1.15625 0.953125q-0.765625 0.359375 -1.828125 0.359375q-1.4375 0 -2.4375 -0.71875q-1.015625 -0.703125 -0.953125 -2.3125zm7.859375 2.84375l2.390625 -11.453125l1.421875 0l-0.921875 4.390625q0.796875 -0.765625 1.46875 -1.09375q0.6875 -0.328125 1.40625 -0.328125q1.03125 0 1.59375 0.546875q0.578125 0.53125 0.578125 1.421875q0 0.4375 -0.25 1.609375l-1.03125 4.90625l-1.40625 0l1.046875 -5.03125q0.234375 -1.09375 0.234375 -1.375q0 -0.40625 -0.28125 -0.65625q-0.28125 -0.265625 -0.8125 -0.265625q-0.765625 0 -1.46875 0.40625q-0.6875 0.40625 -1.09375 1.109375q-0.390625 0.6875 -0.71875 2.25l-0.734375 3.5625l-1.421875 0zm9.1484375 -3.15625q0 -2.421875 1.4375 -4.015625q1.171875 -1.3125 3.09375 -1.3125q1.5 0 2.40625 0.9375q0.921875 0.9375 0.921875 2.53125q0 1.421875 -0.578125 2.65625q-0.578125 1.234375 -1.640625 1.890625q-1.0625 0.65625 -2.25 0.65625q-0.96875 0 -1.765625 -0.40625q-0.78125 -0.421875 -1.203125 -1.171875q-0.421875 -0.765625 -0.421875 -1.765625zm1.421875 -0.140625q0 1.171875 0.5625 1.78125q0.5625 0.609375 1.421875 0.609375q0.453125 0 0.890625 -0.1875q0.453125 -0.1875 0.828125 -0.5625q0.390625 -0.375 0.65625 -0.84375q0.28125 -0.484375 0.4375 -1.046875q0.25 -0.765625 0.25 -1.484375q0 -1.125 -0.578125 -1.734375q-0.5625 -0.625 -1.421875 -0.625q-0.65625 0 -1.203125 0.3125q-0.546875 0.3125 -1.0 0.921875q-0.4375 0.609375 -0.640625 1.421875q-0.203125 0.8125 -0.203125 1.4375zm12.8984375 1.796875q-1.5 1.6875 -3.0625 1.6875q-0.953125 0 -1.546875 -0.546875q-0.59375 -0.5625 -0.59375 -1.359375q0 -0.515625 0.265625 -1.796875l1.0 -4.78125l1.421875 0l-1.109375 5.296875q-0.140625 0.671875 -0.140625 1.03125q0 0.46875 0.28125 0.734375q0.28125 0.265625 0.84375 0.265625q0.59375 0 1.15625 -0.28125q0.5625 -0.296875 0.96875 -0.78125q0.421875 -0.5 0.671875 -1.171875q0.171875 -0.4375 0.40625 -1.515625l0.75 -3.578125l1.40625 0l-1.734375 8.296875l-1.296875 0l0.3125 -1.5zm3.1171875 1.5l2.390625 -11.453125l1.421875 0l-2.390625 11.453125l-1.421875 0zm9.2578125 -1.203125q-1.203125 1.390625 -2.53125 1.390625q-1.171875 0 -1.96875 -0.875q-0.78125 -0.875 -0.78125 -2.53125q0 -1.515625 0.625 -2.765625q0.625 -1.25 1.546875 -1.875q0.9375 -0.625 1.875 -0.625q1.546875 0 2.34375 1.484375l0.9375 -4.453125l1.40625 0l-2.390625 11.453125l-1.3125 0l0.25 -1.203125zm-3.875 -2.28125q0 0.875 0.171875 1.375q0.171875 0.5 0.578125 0.828125q0.421875 0.328125 1.0 0.328125q0.96875 0 1.75 -1.0q1.046875 -1.328125 1.046875 -3.28125q0 -0.984375 -0.515625 -1.53125q-0.515625 -0.5625 -1.296875 -0.5625q-0.515625 0 -0.9375 0.234375q-0.40625 0.21875 -0.828125 0.765625q-0.40625 0.546875 -0.6875 1.390625q-0.28125 0.828125 -0.28125 1.453125zm12.015625 3.484375l2.390625 -11.453125l1.53125 0l-2.390625 11.453125l-1.53125 0zm14.234375 -3.03125l1.40625 0.15625q-0.53125 1.546875 -1.515625 2.3125q-0.96875 0.75 -2.21875 0.75q-1.359375 0 -2.203125 -0.875q-0.828125 -0.875 -0.828125 -2.453125q0 -1.359375 0.53125 -2.671875q0.546875 -1.3125 1.546875 -1.984375q1.0 -0.6875 2.296875 -0.6875q1.328125 0 2.109375 0.75q0.78125 0.75 0.78125 2.0l-1.390625 0.09375q0 -0.796875 -0.453125 -1.234375q-0.453125 -0.453125 -1.1875 -0.453125q-0.84375 0 -1.46875 0.546875q-0.625 0.53125 -0.984375 1.640625q-0.359375 1.09375 -0.359375 2.109375q0 1.0625 0.46875 1.59375q0.46875 0.53125 1.15625 0.53125q0.6875 0 1.3125 -0.515625q0.640625 -0.53125 1.0 -1.609375zm2.265625 3.03125l2.390625 -11.453125l1.421875 0l-0.921875 4.390625q0.796875 -0.765625 1.46875 -1.09375q0.6875 -0.328125 1.40625 -0.328125q1.03125 0 1.59375 0.546875q0.578125 0.53125 0.578125 1.421875q0 0.4375 -0.25 1.609375l-1.03125 4.90625l-1.40625 0l1.046875 -5.03125q0.234375 -1.09375 0.234375 -1.375q0 -0.40625 -0.28125 -0.65625q-0.28125 -0.265625 -0.8125 -0.265625q-0.765625 0 -1.46875 0.40625q-0.6875 0.40625 -1.09375 1.109375q-0.390625 0.6875 -0.71875 2.25l-0.734375 3.5625l-1.421875 0zm9.1484375 -3.15625q0 -2.421875 1.4375 -4.015625q1.171875 -1.3125 3.09375 -1.3125q1.5 0 2.40625 0.9375q0.921875 0.9375 0.921875 2.53125q0 1.421875 -0.578125 2.65625q-0.578125 1.234375 -1.640625 1.890625q-1.0625 0.65625 -2.25 0.65625q-0.96875 0 -1.765625 -0.40625q-0.78125 -0.421875 -1.203125 -1.171875q-0.421875 -0.765625 -0.421875 -1.765625zm1.421875 -0.140625q0 1.171875 0.5625 1.78125q0.5625 0.609375 1.421875 0.609375q0.453125 0 0.890625 -0.1875q0.453125 -0.1875 0.828125 -0.5625q0.390625 -0.375 0.65625 -0.84375q0.28125 -0.484375 0.4375 -1.046875q0.25 -0.765625 0.25 -1.484375q0 -1.125 -0.578125 -1.734375q-0.5625 -0.625 -1.421875 -0.625q-0.65625 0 -1.203125 0.3125q-0.546875 0.3125 -1.0 0.921875q-0.4375 0.609375 -0.640625 1.421875q-0.203125 0.8125 -0.203125 1.4375zm7.4765625 0.140625q0 -2.421875 1.4375 -4.015625q1.171875 -1.3125 3.09375 -1.3125q1.5 0 2.40625 0.9375q0.921875 0.9375 0.921875 2.53125q0 1.421875 -0.578125 2.65625q-0.578125 1.234375 -1.640625 1.890625q-1.0625 0.65625 -2.25 0.65625q-0.96875 0 -1.765625 -0.40625q-0.78125 -0.421875 -1.203125 -1.171875q-0.421875 -0.765625 -0.421875 -1.765625zm1.421875 -0.140625q0 1.171875 0.5625 1.78125q0.5625 0.609375 1.421875 0.609375q0.453125 0 0.890625 -0.1875q0.453125 -0.1875 0.828125 -0.5625q0.390625 -0.375 0.65625 -0.84375q0.28125 -0.484375 0.4375 -1.046875q0.25 -0.765625 0.25 -1.484375q0 -1.125 -0.578125 -1.734375q-0.5625 -0.625 -1.421875 -0.625q-0.65625 0 -1.203125 0.3125q-0.546875 0.3125 -1.0 0.921875q-0.4375 0.609375 -0.640625 1.421875q-0.203125 0.8125 -0.203125 1.4375zm7.3671875 0.453125l1.40625 -0.078125q0 0.609375 0.1875 1.046875q0.1875 0.421875 0.6875 0.703125q0.515625 0.265625 1.1875 0.265625q0.9375 0 1.40625 -0.375q0.46875 -0.375 0.46875 -0.890625q0 -0.359375 -0.28125 -0.6875q-0.296875 -0.328125 -1.421875 -0.8125q-1.109375 -0.484375 -1.421875 -0.671875q-0.53125 -0.328125 -0.796875 -0.75q-0.265625 -0.4375 -0.265625 -1.0q0 -0.984375 0.78125 -1.6875q0.78125 -0.703125 2.1875 -0.703125q1.5625 0 2.375 0.71875q0.828125 0.71875 0.859375 1.90625l-1.390625 0.09375q-0.03125 -0.75 -0.53125 -1.1875q-0.5 -0.4375 -1.40625 -0.4375q-0.734375 0 -1.140625 0.34375q-0.40625 0.328125 -0.40625 0.71875q0 0.390625 0.34375 0.6875q0.234375 0.203125 1.21875 0.625q1.625 0.703125 2.046875 1.109375q0.671875 0.640625 0.671875 1.578125q0 0.609375 -0.390625 1.203125q-0.375 0.59375 -1.15625 0.953125q-0.765625 0.359375 -1.828125 0.359375q-1.4375 0 -2.4375 -0.71875q-1.015625 -0.703125 -0.953125 -2.3125zm13.953125 0.015625l1.375 0.140625q-0.296875 1.03125 -1.359375 1.953125q-1.0625 0.921875 -2.546875 0.921875q-0.921875 0 -1.6875 -0.421875q-0.765625 -0.4375 -1.171875 -1.25q-0.40625 -0.8125 -0.40625 -1.84375q0 -1.359375 0.625 -2.640625q0.640625 -1.28125 1.640625 -1.890625q1.0 -0.625 2.15625 -0.625q1.484375 0 2.375 0.921875q0.890625 0.921875 0.890625 2.515625q0 0.609375 -0.109375 1.25l-6.109375 0q-0.03125 0.234375 -0.03125 0.4375q0 1.15625 0.53125 1.78125q0.53125 0.609375 1.3125 0.609375q0.71875 0 1.421875 -0.46875q0.703125 -0.484375 1.09375 -1.390625zm-4.109375 -2.046875l4.65625 0q0.015625 -0.21875 0.015625 -0.3125q0 -1.0625 -0.53125 -1.625q-0.53125 -0.578125 -1.375 -0.578125q-0.90625 0 -1.65625 0.625q-0.734375 0.625 -1.109375 1.890625zm9.7421875 2.0q0.078125 -0.703125 0.3125 -1.25q0.25 -0.5625 0.75 -1.140625q0.296875 -0.328125 1.390625 -1.21875q1.109375 -0.890625 1.4375 -1.4375q0.328125 -0.5625 0.328125 -1.03125q0 -0.625 -0.53125 -1.09375q-0.515625 -0.46875 -1.328125 -0.46875q-0.890625 0 -1.484375 0.5625q-0.59375 0.546875 -0.78125 1.859375l-1.421875 -0.234375q0.34375 -1.671875 1.296875 -2.5q0.96875 -0.828125 2.34375 -0.828125q0.953125 0 1.71875 0.390625q0.78125 0.375 1.171875 1.046875q0.40625 0.65625 0.40625 1.375q0 0.859375 -0.578125 1.65625q-0.421875 0.59375 -1.921875 1.78125q-1.03125 0.828125 -1.34375 1.296875q-0.3125 0.46875 -0.4375 1.234375l-1.328125 0zm-0.703125 2.875l0.34375 -1.609375l1.59375 0l-0.328125 1.609375l-1.609375 0z" fill-rule="nonzero"></path><path fill="#cfe2f3" d="m308.31104 27.868767l250.77167 0l0 85.385826l-250.77167 0z" fill-rule="evenodd"></path><path stroke="#000000" stroke-width="1.0" stroke-linejoin="round" stroke-linecap="butt" d="m308.31104 27.868767l250.77167 0l0 85.385826l-250.77167 0z" fill-rule="evenodd"></path><path fill="#000000" d="m387.1148 63.570427l2.28125 0.578125q-0.71875 2.796875 -2.578125 4.28125q-1.859375 1.46875 -4.546875 1.46875q-2.765625 0 -4.515625 -1.125q-1.734375 -1.140625 -2.640625 -3.28125q-0.90625 -2.15625 -0.90625 -4.609375q0 -2.6875 1.015625 -4.6875q1.03125 -2.0 2.921875 -3.03125q1.890625 -1.03125 4.171875 -1.03125q2.578125 0 4.328125 1.3125q1.765625 1.3125 2.453125 3.6875l-2.234375 0.53125q-0.609375 -1.875 -1.75 -2.734375q-1.125 -0.859375 -2.84375 -0.859375q-1.984375 0 -3.3125 0.953125q-1.328125 0.953125 -1.875 2.546875q-0.53125 1.59375 -0.53125 3.296875q0 2.1875 0.625 3.828125q0.640625 1.640625 1.984375 2.453125q1.359375 0.796875 2.921875 0.796875q1.921875 0 3.234375 -1.09375q1.328125 -1.109375 1.796875 -3.28125zm4.0195312 -0.1875q0 -3.46875 1.921875 -5.125q1.609375 -1.390625 3.921875 -1.390625q2.5625 0 4.1875 1.6875q1.625 1.6875 1.625 4.640625q0 2.40625 -0.71875 3.78125q-0.71875 1.375 -2.09375 2.140625q-1.375 0.765625 -3.0 0.765625q-2.625 0 -4.234375 -1.671875q-1.609375 -1.6875 -1.609375 -4.828125zm2.171875 0q0 2.390625 1.03125 3.578125q1.046875 1.1875 2.640625 1.1875q1.5625 0 2.609375 -1.1875q1.046875 -1.203125 1.046875 -3.65625q0 -2.3125 -1.0625 -3.5q-1.046875 -1.1875 -2.59375 -1.1875q-1.59375 0 -2.640625 1.1875q-1.03125 1.1875 -1.03125 3.578125zm11.957031 6.21875l0 -12.453125l1.90625 0l0 1.78125q1.375 -2.0625 3.953125 -2.0625q1.125 0 2.0625 0.40625q0.953125 0.40625 1.421875 1.0625q0.46875 0.65625 0.65625 1.5625q0.125 0.578125 0.125 2.046875l0 7.65625l-2.109375 0l0 -7.578125q0 -1.28125 -0.25 -1.921875q-0.25 -0.640625 -0.875 -1.015625q-0.625 -0.390625 -1.46875 -0.390625q-1.34375 0 -2.328125 0.859375q-0.984375 0.859375 -0.984375 3.25l0 6.796875l-2.109375 0zm12.503906 -3.71875l2.09375 -0.328125q0.171875 1.25 0.96875 1.921875q0.8125 0.671875 2.25 0.671875q1.453125 0 2.15625 -0.59375q0.703125 -0.59375 0.703125 -1.390625q0 -0.71875 -0.625 -1.125q-0.421875 -0.28125 -2.15625 -0.71875q-2.3125 -0.578125 -3.21875 -1.0q-0.890625 -0.4375 -1.359375 -1.1875q-0.453125 -0.765625 -0.453125 -1.671875q0 -0.828125 0.375 -1.53125q0.390625 -0.71875 1.046875 -1.1875q0.484375 -0.359375 1.328125 -0.609375q0.859375 -0.265625 1.828125 -0.265625q1.46875 0 2.578125 0.421875q1.109375 0.421875 1.625 1.15625q0.53125 0.71875 0.734375 1.921875l-2.0625 0.28125q-0.140625 -0.96875 -0.8125 -1.5q-0.671875 -0.546875 -1.90625 -0.546875q-1.453125 0 -2.078125 0.484375q-0.625 0.484375 -0.625 1.125q0 0.40625 0.265625 0.734375q0.25 0.34375 0.8125 0.5625q0.3125 0.125 1.859375 0.546875q2.234375 0.59375 3.109375 0.984375q0.890625 0.375 1.390625 1.109375q0.515625 0.71875 0.515625 1.796875q0 1.046875 -0.625 1.984375q-0.609375 0.9375 -1.765625 1.453125q-1.15625 0.5 -2.625 0.5q-2.421875 0 -3.703125 -1.0q-1.265625 -1.015625 -1.625 -3.0zm17.453125 1.828125l0.3125 1.859375q-0.890625 0.203125 -1.59375 0.203125q-1.15625 0 -1.796875 -0.359375q-0.625 -0.375 -0.890625 -0.96875q-0.25 -0.59375 -0.25 -2.484375l0 -7.171875l-1.546875 0l0 -1.640625l1.546875 0l0 -3.078125l2.09375 -1.265625l0 4.34375l2.125 0l0 1.640625l-2.125 0l0 7.28125q0 0.90625 0.109375 1.171875q0.125 0.25 0.375 0.40625q0.25 0.140625 0.71875 0.140625q0.34375 0 0.921875 -0.078125zm2.0429993 1.890625l0 -12.453125l1.890625 0l0 1.890625q0.734375 -1.328125 1.34375 -1.75q0.625 -0.421875 1.359375 -0.421875q1.0625 0 2.171875 0.6875l-0.734375 1.953125q-0.765625 -0.453125 -1.546875 -0.453125q-0.6875 0 -1.25 0.421875q-0.546875 0.40625 -0.78125 1.140625q-0.34375 1.125 -0.34375 2.46875l0 6.515625l-2.109375 0zm16.132812 -1.53125q-1.171875 0.984375 -2.265625 1.40625q-1.078125 0.40625 -2.3125 0.40625q-2.046875 0 -3.15625 -1.0q-1.09375 -1.0 -1.09375 -2.5625q0 -0.921875 0.40625 -1.671875q0.421875 -0.75 1.09375 -1.203125q0.671875 -0.46875 1.515625 -0.703125q0.625 -0.15625 1.875 -0.3125q2.5625 -0.3125 3.765625 -0.734375q0.015625 -0.421875 0.015625 -0.546875q0 -1.28125 -0.609375 -1.8125q-0.796875 -0.71875 -2.390625 -0.71875q-1.5 0 -2.203125 0.53125q-0.703125 0.515625 -1.046875 1.84375l-2.0625 -0.28125q0.28125 -1.328125 0.921875 -2.140625q0.640625 -0.8125 1.859375 -1.25q1.21875 -0.453125 2.828125 -0.453125q1.59375 0 2.59375 0.375q1.0 0.375 1.46875 0.953125q0.46875 0.5625 0.65625 1.4375q0.09375 0.53125 0.09375 1.9375l0 2.8125q0 2.9375 0.140625 3.71875q0.140625 0.78125 0.53125 1.5l-2.203125 0q-0.328125 -0.65625 -0.421875 -1.53125zm-0.171875 -4.71875q-1.15625 0.46875 -3.453125 0.796875q-1.296875 0.1875 -1.84375 0.421875q-0.53125 0.234375 -0.828125 0.6875q-0.28125 0.453125 -0.28125 1.0q0 0.84375 0.625 1.40625q0.640625 0.5625 1.875 0.5625q1.21875 0 2.171875 -0.53125q0.953125 -0.53125 1.390625 -1.453125q0.34375 -0.71875 0.34375 -2.109375l0 -0.78125zm5.4101562 -8.5l0 -2.4375l2.109375 0l0 2.4375l-2.109375 0zm0 14.75l0 -12.453125l2.109375 0l0 12.453125l-2.109375 0zm5.3164062 0l0 -12.453125l1.90625 0l0 1.78125q1.375 -2.0625 3.953125 -2.0625q1.125 0 2.0625 0.40625q0.953125 0.40625 1.421875 1.0625q0.46875 0.65625 0.65625 1.5625q0.125 0.578125 0.125 2.046875l0 7.65625l-2.109375 0l0 -7.578125q0 -1.28125 -0.25 -1.921875q-0.25 -0.640625 -0.875 -1.015625q-0.625 -0.390625 -1.46875 -0.390625q-1.34375 0 -2.328125 0.859375q-0.984375 0.859375 -0.984375 3.25l0 6.796875l-2.109375 0zm17.957031 -1.890625l0.3125 1.859375q-0.890625 0.203125 -1.59375 0.203125q-1.15625 0 -1.796875 -0.359375q-0.625 -0.375 -0.890625 -0.96875q-0.25 -0.59375 -0.25 -2.484375l0 -7.171875l-1.546875 0l0 -1.640625l1.546875 0l0 -3.078125l2.09375 -1.265625l0 4.34375l2.125 0l0 1.640625l-2.125 0l0 7.28125q0 0.90625 0.109375 1.171875q0.125 0.25 0.375 0.40625q0.25 0.140625 0.71875 0.140625q0.34375 0 0.921875 -0.078125zm1.2148438 -1.828125l2.09375 -0.328125q0.171875 1.25 0.96875 1.921875q0.8125 0.671875 2.25 0.671875q1.453125 0 2.15625 -0.59375q0.703125 -0.59375 0.703125 -1.390625q0 -0.71875 -0.625 -1.125q-0.421875 -0.28125 -2.15625 -0.71875q-2.3125 -0.578125 -3.21875 -1.0q-0.890625 -0.4375 -1.359375 -1.1875q-0.453125 -0.765625 -0.453125 -1.671875q0 -0.828125 0.375 -1.53125q0.390625 -0.71875 1.046875 -1.1875q0.484375 -0.359375 1.328125 -0.609375q0.859375 -0.265625 1.828125 -0.265625q1.46875 0 2.578125 0.421875q1.109375 0.421875 1.625 1.15625q0.53125 0.71875 0.734375 1.921875l-2.0625 0.28125q-0.140625 -0.96875 -0.8125 -1.5q-0.671875 -0.546875 -1.90625 -0.546875q-1.453125 0 -2.078125 0.484375q-0.625 0.484375 -0.625 1.125q0 0.40625 0.265625 0.734375q0.25 0.34375 0.8125 0.5625q0.3125 0.125 1.859375 0.546875q2.234375 0.59375 3.109375 0.984375q0.890625 0.375 1.390625 1.109375q0.515625 0.71875 0.515625 1.796875q0 1.046875 -0.625 1.984375q-0.609375 0.9375 -1.765625 1.453125q-1.15625 0.5 -2.625 0.5q-2.421875 0 -3.703125 -1.0q-1.265625 -1.015625 -1.625 -3.0z" fill-rule="nonzero"></path><path fill="#000000" d="m347.45465 90.92168l2.390625 -11.453125l1.53125 0l-2.390625 11.453125l-1.53125 0zm8.5 0l2.390625 -11.453125l1.421875 0l-0.921875 4.390625q0.796875 -0.765625 1.46875 -1.09375q0.6875 -0.328125 1.40625 -0.328125q1.03125 0 1.59375 0.546875q0.578125 0.53125 0.578125 1.421875q0 0.4375 -0.25 1.609375l-1.03125 4.90625l-1.40625 0l1.046875 -5.03125q0.234375 -1.09375 0.234375 -1.375q0 -0.40625 -0.28125 -0.65625q-0.28125 -0.265625 -0.8125 -0.265625q-0.765625 0 -1.46875 0.40625q-0.6875 0.40625 -1.09375 1.109375q-0.390625 0.6875 -0.71875 2.25l-0.734375 3.5625l-1.421875 0zm14.4921875 -1.03125q-0.734375 0.625 -1.421875 0.921875q-0.671875 0.296875 -1.4375 0.296875q-1.15625 0 -1.859375 -0.671875q-0.703125 -0.6875 -0.703125 -1.734375q0 -0.703125 0.3125 -1.234375q0.328125 -0.53125 0.84375 -0.859375q0.53125 -0.328125 1.28125 -0.46875q0.484375 -0.09375 1.8125 -0.140625q1.328125 -0.0625 1.90625 -0.28125q0.171875 -0.578125 0.171875 -0.96875q0 -0.484375 -0.359375 -0.765625q-0.5 -0.390625 -1.4375 -0.390625q-0.890625 0 -1.46875 0.390625q-0.5625 0.390625 -0.8125 1.125l-1.4375 -0.125q0.4375 -1.234375 1.390625 -1.890625q0.953125 -0.65625 2.390625 -0.65625q1.546875 0 2.4375 0.734375q0.6875 0.546875 0.6875 1.421875q0 0.65625 -0.1875 1.53125l-0.46875 2.0625q-0.21875 0.984375 -0.21875 1.609375q0 0.390625 0.171875 1.125l-1.421875 0q-0.125 -0.40625 -0.171875 -1.03125zm0.53125 -3.171875q-0.296875 0.109375 -0.640625 0.171875q-0.34375 0.0625 -1.140625 0.140625q-1.234375 0.109375 -1.75 0.28125q-0.5 0.15625 -0.765625 0.53125q-0.25 0.359375 -0.25 0.8125q0 0.59375 0.40625 0.984375q0.421875 0.375 1.171875 0.375q0.703125 0 1.34375 -0.375q0.65625 -0.375 1.03125 -1.03125q0.375 -0.671875 0.59375 -1.890625zm4.8671875 4.203125l-1.359375 -8.296875l1.375 0l0.71875 4.5625q0.109375 0.75 0.28125 2.453125q0.40625 -0.890625 1.046875 -2.03125l2.765625 -4.984375l1.5 0l-4.75 8.296875l-1.578125 0zm12.0 -2.828125l1.375 0.140625q-0.296875 1.03125 -1.359375 1.953125q-1.0625 0.921875 -2.546875 0.921875q-0.921875 0 -1.6875 -0.421875q-0.765625 -0.4375 -1.171875 -1.25q-0.40625 -0.8125 -0.40625 -1.84375q0 -1.359375 0.625 -2.640625q0.640625 -1.28125 1.640625 -1.890625q1.0 -0.625 2.15625 -0.625q1.484375 0 2.375 0.921875q0.890625 0.921875 0.890625 2.515625q0 0.609375 -0.109375 1.25l-6.109375 0q-0.03125 0.234375 -0.03125 0.4375q0 1.15625 0.53125 1.78125q0.53125 0.609375 1.3125 0.609375q0.71875 0 1.421875 -0.46875q0.703125 -0.484375 1.09375 -1.390625zm-4.109375 -2.046875l4.65625 0q0.015625 -0.21875 0.015625 -0.3125q0 -1.0625 -0.53125 -1.625q-0.53125 -0.578125 -1.375 -0.578125q-0.90625 0 -1.65625 0.625q-0.734375 0.625 -1.109375 1.890625zm16.953125 3.84375q-0.734375 0.625 -1.421875 0.921875q-0.671875 0.296875 -1.4375 0.296875q-1.15625 0 -1.859375 -0.671875q-0.703125 -0.6875 -0.703125 -1.734375q0 -0.703125 0.3125 -1.234375q0.328125 -0.53125 0.84375 -0.859375q0.53125 -0.328125 1.28125 -0.46875q0.484375 -0.09375 1.8125 -0.140625q1.328125 -0.0625 1.90625 -0.28125q0.171875 -0.578125 0.171875 -0.96875q0 -0.484375 -0.359375 -0.765625q-0.5 -0.390625 -1.4375 -0.390625q-0.890625 0 -1.46875 0.390625q-0.5625 0.390625 -0.8125 1.125l-1.4375 -0.125q0.4375 -1.234375 1.390625 -1.890625q0.953125 -0.65625 2.390625 -0.65625q1.546875 0 2.4375 0.734375q0.6875 0.546875 0.6875 1.421875q0 0.65625 -0.1875 1.53125l-0.46875 2.0625q-0.21875 0.984375 -0.21875 1.609375q0 0.390625 0.171875 1.125l-1.421875 0q-0.125 -0.40625 -0.171875 -1.03125zm0.53125 -3.171875q-0.296875 0.109375 -0.640625 0.171875q-0.34375 0.0625 -1.140625 0.140625q-1.234375 0.109375 -1.75 0.28125q-0.5 0.15625 -0.765625 0.53125q-0.25 0.359375 -0.25 0.8125q0 0.59375 0.40625 0.984375q0.421875 0.375 1.171875 0.375q0.703125 0 1.34375 -0.375q0.65625 -0.375 1.03125 -1.03125q0.375 -0.671875 0.59375 -1.890625zm7.109375 4.203125l2.390625 -11.453125l1.421875 0l-2.390625 11.453125l-1.421875 0zm5.6796875 -9.859375l0.328125 -1.59375l1.40625 0l-0.328125 1.59375l-1.40625 0zm-2.0625 9.859375l1.734375 -8.296875l1.40625 0l-1.734375 8.296875l-1.40625 0zm3.6015625 0l1.734375 -8.296875l1.40625 0l-0.28125 1.359375q0.78125 -0.875 1.40625 -1.203125q0.625 -0.34375 1.34375 -0.34375q0.78125 0 1.296875 0.40625q0.515625 0.40625 0.6875 1.140625q0.625 -0.78125 1.328125 -1.15625q0.703125 -0.390625 1.46875 -0.390625q1.046875 0 1.5625 0.5q0.515625 0.484375 0.515625 1.375q0 0.375 -0.171875 1.265625l-1.125 5.34375l-1.40625 0l1.140625 -5.484375q0.140625 -0.671875 0.140625 -0.96875q0 -0.40625 -0.265625 -0.640625q-0.25 -0.234375 -0.71875 -0.234375q-0.625 0 -1.28125 0.390625q-0.65625 0.375 -1.03125 1.0q-0.359375 0.625 -0.625 1.90625l-0.84375 4.03125l-1.421875 0l1.171875 -5.609375q0.125 -0.5625 0.125 -0.8125q0 -0.40625 -0.25 -0.65625q-0.25 -0.25 -0.65625 -0.25q-0.609375 0 -1.265625 0.390625q-0.65625 0.375 -1.078125 1.0625q-0.40625 0.6875 -0.671875 1.953125l-0.828125 3.921875l-1.40625 0zm15.34375 -9.859375l0.328125 -1.59375l1.40625 0l-0.328125 1.59375l-1.40625 0zm-2.0625 9.859375l1.734375 -8.296875l1.40625 0l-1.734375 8.296875l-1.40625 0zm6.9140625 -1.15625l-0.234375 1.171875q-0.515625 0.125 -0.984375 0.125q-0.84375 0 -1.34375 -0.421875q-0.375 -0.3125 -0.375 -0.84375q0 -0.28125 0.203125 -1.265625l1.0 -4.8125l-1.109375 0l0.21875 -1.09375l1.125 0l0.421875 -2.046875l1.625 -0.96875l-0.640625 3.015625l1.3906555 0l-0.234375 1.09375l-1.3750305 0l-0.96875 4.578125q-0.171875 0.875 -0.171875 1.046875q0 0.25 0.140625 0.390625q0.140625 0.125 0.46875 0.125q0.46875 0 0.84375 -0.09375zm7.226593 -1.671875l1.375 0.140625q-0.296875 1.03125 -1.359375 1.953125q-1.0625 0.921875 -2.546875 0.921875q-0.921875 0 -1.6875 -0.421875q-0.765625 -0.4375 -1.171875 -1.25q-0.40625 -0.8125 -0.40625 -1.84375q0 -1.359375 0.625 -2.640625q0.640625 -1.28125 1.640625 -1.890625q1.0 -0.625 2.15625 -0.625q1.484375 0 2.375 0.921875q0.890625 0.921875 0.890625 2.515625q0 0.609375 -0.109375 1.25l-6.109375 0q-0.03125 0.234375 -0.03125 0.4375q0 1.15625 0.53125 1.78125q0.53125 0.609375 1.3125 0.609375q0.71875 0 1.421875 -0.46875q0.703125 -0.484375 1.09375 -1.390625zm-4.109375 -2.046875l4.65625 0q0.015625 -0.21875 0.015625 -0.3125q0 -1.0625 -0.53125 -1.625q-0.53125 -0.578125 -1.375 -0.578125q-0.90625 0 -1.65625 0.625q-0.734375 0.625 -1.109375 1.890625zm12.5078125 3.671875q-1.203125 1.390625 -2.53125 1.390625q-1.171875 0 -1.96875 -0.875q-0.78125 -0.875 -0.78125 -2.53125q0 -1.515625 0.625 -2.765625q0.625 -1.25 1.546875 -1.875q0.9375 -0.625 1.875 -0.625q1.546875 0 2.34375 1.484375l0.9375 -4.453125l1.40625 0l-2.390625 11.453125l-1.3125 0l0.25 -1.203125zm-3.875 -2.28125q0 0.875 0.171875 1.375q0.171875 0.5 0.578125 0.828125q0.421875 0.328125 1.0 0.328125q0.96875 0 1.75 -1.0q1.046875 -1.328125 1.046875 -3.28125q0 -0.984375 -0.515625 -1.53125q-0.515625 -0.5625 -1.296875 -0.5625q-0.515625 0 -0.9375 0.234375q-0.40625 0.21875 -0.828125 0.765625q-0.40625 0.546875 -0.6875 1.390625q-0.28125 0.828125 -0.28125 1.453125zm11.625 3.484375l2.390625 -11.453125l1.421875 0l-0.859375 4.09375q0.671875 -0.625 1.21875 -0.875q0.546875 -0.25 1.140625 -0.25q1.171875 0 1.9375 0.875q0.78125 0.859375 0.78125 2.515625q0 1.09375 -0.3125 2.015625q-0.3125 0.90625 -0.78125 1.53125q-0.453125 0.625 -0.953125 1.0q-0.484375 0.359375 -1.0 0.546875q-0.515625 0.1875 -0.984375 0.1875q-0.828125 0 -1.453125 -0.4375q-0.625 -0.4375 -0.96875 -1.328125l-0.328125 1.578125l-1.25 0zm2.09375 -3.40625l0 0.265625q0 1.0625 0.5 1.625q0.515625 0.546875 1.265625 0.546875q0.75 0 1.359375 -0.515625q0.625 -0.53125 1.015625 -1.625q0.40625 -1.109375 0.40625 -2.03125q0 -1.046875 -0.5 -1.625q-0.5 -0.578125 -1.25 -0.578125q-0.765625 0 -1.40625 0.59375q-0.640625 0.578125 -1.0625 1.8125q-0.328125 0.90625 -0.328125 1.53125zm12.4765625 1.90625q-1.5 1.6875 -3.0625 1.6875q-0.953125 0 -1.546875 -0.546875q-0.59375 -0.5625 -0.59375 -1.359375q0 -0.515625 0.265625 -1.796875l1.0 -4.78125l1.421875 0l-1.109375 5.296875q-0.140625 0.671875 -0.140625 1.03125q0 0.46875 0.28125 0.734375q0.28125 0.265625 0.84375 0.265625q0.59375 0 1.15625 -0.28125q0.5625 -0.296875 0.96875 -0.78125q0.421875 -0.5 0.671875 -1.171875q0.171875 -0.4375 0.40625 -1.515625l0.75 -3.578125l1.40625 0l-1.734375 8.296875l-1.296875 0l0.3125 -1.5zm8.8203125 0.296875q-1.203125 1.390625 -2.53125 1.390625q-1.171875 0 -1.96875 -0.875q-0.78125 -0.875 -0.78125 -2.53125q0 -1.515625 0.625 -2.765625q0.625 -1.25 1.546875 -1.875q0.9375 -0.625 1.875 -0.625q1.546875 0 2.34375 1.484375l0.9375 -4.453125l1.40625 0l-2.390625 11.453125l-1.3125 0l0.25 -1.203125zm-3.875 -2.28125q0 0.875 0.171875 1.375q0.171875 0.5 0.578125 0.828125q0.421875 0.328125 1.0 0.328125q0.96875 0 1.75 -1.0q1.046875 -1.328125 1.046875 -3.28125q0 -0.984375 -0.515625 -1.53125q-0.515625 -0.5625 -1.296875 -0.5625q-0.515625 0 -0.9375 0.234375q-0.40625 0.21875 -0.828125 0.765625q-0.40625 0.546875 -0.6875 1.390625q-0.28125 0.828125 -0.28125 1.453125zm7.1015625 4.234375l1.4375 0.140625q-0.015625 0.484375 0.109375 0.71875q0.140625 0.25 0.421875 0.375q0.390625 0.171875 1.0 0.171875q1.28125 0 1.84375 -0.65625q0.359375 -0.453125 0.671875 -1.953125l0.140625 -0.671875q-1.09375 1.125 -2.34375 1.125q-1.25 0 -2.109375 -0.921875q-0.84375 -0.9375 -0.84375 -2.625q0 -1.40625 0.671875 -2.578125q0.671875 -1.171875 1.59375 -1.765625q0.921875 -0.59375 1.890625 -0.59375q1.640625 0 2.515625 1.546875l0.28125 -1.359375l1.296875 0l-1.671875 8.0q-0.265625 1.328125 -0.71875 2.0625q-0.4375 0.75 -1.234375 1.15625q-0.796875 0.40625 -1.828125 0.40625q-1.0 0 -1.734375 -0.265625q-0.71875 -0.25 -1.078125 -0.75q-0.34375 -0.5 -0.34375 -1.140625q0 -0.1875 0.03125 -0.421875zm1.765625 -4.421875q0 0.84375 0.171875 1.28125q0.234375 0.59375 0.65625 0.921875q0.4375 0.3125 0.96875 0.3125q0.703125 0 1.390625 -0.484375q0.6875 -0.5 1.109375 -1.515625q0.421875 -1.03125 0.421875 -1.953125q0 -1.03125 -0.5625 -1.625q-0.5625 -0.609375 -1.40625 -0.609375q-0.515625 0 -1.0 0.28125q-0.484375 0.265625 -0.90625 0.84375q-0.40625 0.5625 -0.625 1.359375q-0.21875 0.78125 -0.21875 1.1875zm13.3046875 0.84375l1.375 0.140625q-0.296875 1.03125 -1.359375 1.953125q-1.0625 0.921875 -2.546875 0.921875q-0.921875 0 -1.6875 -0.421875q-0.765625 -0.4375 -1.171875 -1.25q-0.40625 -0.8125 -0.40625 -1.84375q0 -1.359375 0.625 -2.640625q0.640625 -1.28125 1.640625 -1.890625q1.0 -0.625 2.15625 -0.625q1.484375 0 2.375 0.921875q0.890625 0.921875 0.890625 2.515625q0 0.609375 -0.109375 1.25l-6.109375 0q-0.03125 0.234375 -0.03125 0.4375q0 1.15625 0.53125 1.78125q0.53125 0.609375 1.3125 0.609375q0.71875 0 1.421875 -0.46875q0.703125 -0.484375 1.09375 -1.390625zm-4.109375 -2.046875l4.65625 0q0.015625 -0.21875 0.015625 -0.3125q0 -1.0625 -0.53125 -1.625q-0.53125 -0.578125 -1.375 -0.578125q-0.90625 0 -1.65625 0.625q-0.734375 0.625 -1.109375 1.890625zm10.2265625 3.71875l-0.234375 1.171875q-0.515625 0.125 -0.984375 0.125q-0.84375 0 -1.34375 -0.421875q-0.375 -0.3125 -0.375 -0.84375q0 -0.28125 0.203125 -1.265625l1.0 -4.8125l-1.109375 0l0.21875 -1.09375l1.125 0l0.421875 -2.046875l1.625 -0.96875l-0.640625 3.015625l1.390625 0l-0.234375 1.09375l-1.375 0l-0.96875 4.578125q-0.171875 0.875 -0.171875 1.046875q0 0.25 0.140625 0.390625q0.140625 0.125 0.46875 0.125q0.46875 0 0.84375 -0.09375zm1.5234375 1.15625l0.34375 -1.609375l1.59375 0l-0.34375 1.609375l-1.59375 0zm4.445282 0l0.34375 -1.609375l1.59375 0l-0.34375 1.609375l-1.59375 0zm4.4453125 0l0.34375 -1.609375l1.59375 0l-0.34375 1.609375l-1.59375 0z" fill-rule="nonzero"></path><path fill="#cfe2f3" d="m593.2559 27.868767l250.77167 0l0 85.385826l-250.77167 0z" fill-rule="evenodd"></path><path stroke="#000000" stroke-width="1.0" stroke-linejoin="round" stroke-linecap="butt" d="m593.2559 27.868767l250.77167 0l0 85.385826l-250.77167 0z" fill-rule="evenodd"></path><path fill="#000000" d="m669.7765 61.226677q0 -4.265625 2.296875 -6.6875q2.296875 -2.421875 5.9375 -2.421875q2.375 0 4.28125 1.140625q1.921875 1.125 2.921875 3.171875q1.0 2.03125 1.0 4.609375q0 2.609375 -1.0625 4.671875q-1.046875 2.0625 -2.984375 3.125q-1.9375 1.0625 -4.171875 1.0625q-2.421875 0 -4.34375 -1.171875q-1.90625 -1.171875 -2.890625 -3.203125q-0.984375 -2.03125 -0.984375 -4.296875zm2.34375 0.046875q0 3.09375 1.671875 4.890625q1.671875 1.78125 4.1875 1.78125q2.578125 0 4.234375 -1.796875q1.65625 -1.8125 1.65625 -5.125q0 -2.09375 -0.71875 -3.65625q-0.703125 -1.578125 -2.078125 -2.4375q-1.359375 -0.859375 -3.046875 -0.859375q-2.421875 0 -4.171875 1.65625q-1.734375 1.65625 -1.734375 5.546875zm18.699219 8.328125l-1.953125 0l0 -17.1875l2.109375 0l0 6.140625q1.328125 -1.6875 3.40625 -1.6875q1.140625 0 2.171875 0.46875q1.03125 0.46875 1.6875 1.3125q0.65625 0.828125 1.03125 2.015625q0.375 1.171875 0.375 2.53125q0 3.1875 -1.578125 4.9375q-1.578125 1.75 -3.796875 1.75q-2.203125 0 -3.453125 -1.84375l0 1.5625zm-0.03125 -6.3125q0 2.234375 0.609375 3.234375q1.0 1.625 2.703125 1.625q1.375 0 2.375 -1.203125q1.015625 -1.203125 1.015625 -3.578125q0 -2.4375 -0.96875 -3.59375q-0.953125 -1.171875 -2.328125 -1.171875q-1.390625 0 -2.40625 1.203125q-1.0 1.203125 -1.0 3.484375zm11.425781 -8.421875l0 -2.453125l2.109375 0l0 2.453125l-2.109375 0zm-2.6875 19.5625l0.40625 -1.796875q0.625 0.171875 1.0 0.171875q0.640625 0 0.953125 -0.4375q0.328125 -0.421875 0.328125 -2.125l0 -13.09375l2.109375 0l0 13.140625q0 2.296875 -0.609375 3.1875q-0.75 1.171875 -2.53125 1.171875q-0.859375 0 -1.65625 -0.21875zm16.550781 -8.84375l2.171875 0.28125q-0.515625 1.90625 -1.90625 2.96875q-1.390625 1.046875 -3.5625 1.046875q-2.734375 0 -4.34375 -1.671875q-1.59375 -1.6875 -1.59375 -4.734375q0 -3.140625 1.609375 -4.875q1.625 -1.734375 4.203125 -1.734375q2.5 0 4.078125 1.703125q1.59375 1.703125 1.59375 4.78125q0 0.1875 -0.015625 0.5625l-9.28125 0q0.109375 2.046875 1.15625 3.140625q1.046875 1.09375 2.609375 1.09375q1.15625 0 1.96875 -0.609375q0.828125 -0.609375 1.3125 -1.953125zm-6.9375 -3.40625l6.953125 0q-0.140625 -1.5625 -0.796875 -2.359375q-1.0 -1.21875 -2.609375 -1.21875q-1.453125 0 -2.453125 0.984375q-0.984375 0.96875 -1.09375 2.59375zm19.878906 2.859375l2.078125 0.265625q-0.34375 2.15625 -1.75 3.375q-1.390625 1.203125 -3.4375 1.203125q-2.546875 0 -4.109375 -1.671875q-1.546875 -1.671875 -1.546875 -4.78125q0 -2.015625 0.671875 -3.53125q0.671875 -1.515625 2.03125 -2.265625q1.359375 -0.765625 2.96875 -0.765625q2.03125 0 3.3125 1.03125q1.296875 1.03125 1.65625 2.90625l-2.046875 0.328125q-0.296875 -1.265625 -1.046875 -1.890625q-0.734375 -0.640625 -1.796875 -0.640625q-1.59375 0 -2.59375 1.15625q-0.984375 1.140625 -0.984375 3.609375q0 2.5 0.953125 3.640625q0.96875 1.140625 2.515625 1.140625q1.234375 0 2.0625 -0.765625q0.84375 -0.765625 1.0625 -2.34375zm8.484375 2.671875l0.3125 1.859375q-0.890625 0.203125 -1.59375 0.203125q-1.15625 0 -1.796875 -0.359375q-0.625 -0.375 -0.890625 -0.96875q-0.25 -0.59375 -0.25 -2.484375l0 -7.171875l-1.546875 0l0 -1.640625l1.546875 0l0 -3.078125l2.09375 -1.265625l0 4.34375l2.125 0l0 1.640625l-2.125 0l0 7.28125q0 0.90625 0.109375 1.171875q0.125 0.25 0.375 0.40625q0.25 0.140625 0.71875 0.140625q0.34375 0 0.921875 -0.078125zm2.0742188 -12.859375l0 -2.4375l2.109375 0l0 2.4375l-2.109375 0zm0 14.75l0 -12.453125l2.109375 0l0 12.453125l-2.109375 0zm8.785156 0l-4.734375 -12.453125l2.21875 0l2.671875 7.453125q0.4375 1.21875 0.796875 2.515625q0.28125 -0.984375 0.78125 -2.375l2.765625 -7.59375l2.171875 0l-4.703125 12.453125l-1.96875 0zm17.0625 -4.015625l2.171875 0.28125q-0.515625 1.90625 -1.90625 2.96875q-1.390625 1.046875 -3.5625 1.046875q-2.734375 0 -4.34375 -1.671875q-1.59375 -1.6875 -1.59375 -4.734375q0 -3.140625 1.609375 -4.875q1.625 -1.734375 4.203125 -1.734375q2.5 0 4.078125 1.703125q1.59375 1.703125 1.59375 4.78125q0 0.1875 -0.015625 0.5625l-9.28125 0q0.109375 2.046875 1.15625 3.140625q1.046875 1.09375 2.609375 1.09375q1.15625 0 1.96875 -0.609375q0.828125 -0.609375 1.3125 -1.953125zm-6.9375 -3.40625l6.953125 0q-0.140625 -1.5625 -0.796875 -2.359375q-1.0 -1.21875 -2.609375 -1.21875q-1.453125 0 -2.453125 0.984375q-0.984375 0.96875 -1.09375 2.59375z" fill-rule="nonzero"></path><path fill="#000000" d="m614.173 90.92168l2.390625 -11.453125l1.53125 0l-2.390625 11.453125l-1.53125 0zm10.078125 0l-0.859375 -8.296875l1.359375 0l0.375 3.71875l0.140625 2.09375q0.015625 0.234375 0.046875 0.953125q0.234375 -0.796875 0.390625 -1.21875q0.171875 -0.4375 0.53125 -1.21875l1.984375 -4.328125l1.53125 0l0.28125 4.140625q0.0625 0.953125 0.078125 2.53125q0.390625 -1.046875 1.265625 -2.90625l1.78125 -3.765625l1.421875 0l-4.0625 8.296875l-1.46875 0l-0.3125 -4.875q-0.03125 -0.453125 -0.046875 -1.765625q-0.3125 0.84375 -0.75 1.8125l-2.203125 4.828125l-1.484375 0zm15.5703125 -1.03125q-0.734375 0.625 -1.421875 0.921875q-0.671875 0.296875 -1.4375 0.296875q-1.15625 0 -1.859375 -0.671875q-0.703125 -0.6875 -0.703125 -1.734375q0 -0.703125 0.3125 -1.234375q0.328125 -0.53125 0.84375 -0.859375q0.53125 -0.328125 1.28125 -0.46875q0.484375 -0.09375 1.8125 -0.140625q1.328125 -0.0625 1.90625 -0.28125q0.171875 -0.578125 0.171875 -0.96875q0 -0.484375 -0.359375 -0.765625q-0.5 -0.390625 -1.4375 -0.390625q-0.890625 0 -1.46875 0.390625q-0.5625 0.390625 -0.8125 1.125l-1.4375 -0.125q0.4375 -1.234375 1.390625 -1.890625q0.953125 -0.65625 2.390625 -0.65625q1.546875 0 2.4375 0.734375q0.6875 0.546875 0.6875 1.421875q0 0.65625 -0.1875 1.53125l-0.46875 2.0625q-0.21875 0.984375 -0.21875 1.609375q0 0.390625 0.171875 1.125l-1.421875 0q-0.125 -0.40625 -0.171875 -1.03125zm0.53125 -3.171875q-0.296875 0.109375 -0.640625 0.171875q-0.34375 0.0625 -1.140625 0.140625q-1.234375 0.109375 -1.75 0.28125q-0.5 0.15625 -0.765625 0.53125q-0.25 0.359375 -0.25 0.8125q0 0.59375 0.40625 0.984375q0.421875 0.375 1.171875 0.375q0.703125 0 1.34375 -0.375q0.65625 -0.375 1.03125 -1.03125q0.375 -0.671875 0.59375 -1.890625zm2.7734375 4.203125l1.734375 -8.296875l1.28125 0l-0.296875 1.4375q0.828125 -0.84375 1.546875 -1.234375q0.734375 -0.390625 1.5 -0.390625q1.0 0 1.578125 0.546875q0.578125 0.546875 0.578125 1.453125q0 0.46875 -0.203125 1.453125l-1.0625 5.03125l-1.40625 0l1.09375 -5.265625q0.171875 -0.765625 0.171875 -1.125q0 -0.421875 -0.296875 -0.671875q-0.28125 -0.265625 -0.8125 -0.265625q-1.09375 0 -1.9375 0.78125q-0.84375 0.78125 -1.25 2.6875l-0.796875 3.859375l-1.421875 0zm12.2109375 -1.15625l-0.234375 1.171875q-0.515625 0.125 -0.984375 0.125q-0.84375 0 -1.34375 -0.421875q-0.375 -0.3125 -0.375 -0.84375q0 -0.28125 0.203125 -1.265625l1.0 -4.8125l-1.109375 0l0.21875 -1.09375l1.125 0l0.421875 -2.046875l1.625 -0.96875l-0.640625 3.015625l1.390625 0l-0.234375 1.09375l-1.375 0l-0.96875 4.578125q-0.171875 0.875 -0.171875 1.046875q0 0.25 0.140625 0.390625q0.140625 0.125 0.46875 0.125q0.46875 0 0.84375 -0.09375zm8.890625 0l-0.234375 1.171875q-0.515625 0.125 -0.984375 0.125q-0.84375 0 -1.34375 -0.421875q-0.375 -0.3125 -0.375 -0.84375q0 -0.28125 0.203125 -1.265625l1.0 -4.8125l-1.109375 0l0.21875 -1.09375l1.125 0l0.421875 -2.046875l1.625 -0.96875l-0.640625 3.015625l1.390625 0l-0.234375 1.09375l-1.375 0l-0.96875 4.578125q-0.171875 0.875 -0.171875 1.046875q0 0.25 0.140625 0.390625q0.140625 0.125 0.46875 0.125q0.46875 0 0.84375 -0.09375zm1.3828125 -2.0q0 -2.421875 1.4375 -4.015625q1.171875 -1.3125 3.09375 -1.3125q1.5 0 2.40625 0.9375q0.921875 0.9375 0.921875 2.53125q0 1.421875 -0.578125 2.65625q-0.578125 1.234375 -1.640625 1.890625q-1.0625 0.65625 -2.25 0.65625q-0.96875 0 -1.765625 -0.40625q-0.78125 -0.421875 -1.203125 -1.171875q-0.421875 -0.765625 -0.421875 -1.765625zm1.421875 -0.140625q0 1.171875 0.5625 1.78125q0.5625 0.609375 1.421875 0.609375q0.453125 0 0.890625 -0.1875q0.453125 -0.1875 0.828125 -0.5625q0.390625 -0.375 0.65625 -0.84375q0.28125 -0.484375 0.4375 -1.046875q0.25 -0.765625 0.25 -1.484375q0 -1.125 -0.578125 -1.734375q-0.5625 -0.625 -1.421875 -0.625q-0.65625 0 -1.203125 0.3125q-0.546875 0.3125 -1.0 0.921875q-0.4375 0.609375 -0.640625 1.421875q-0.203125 0.8125 -0.203125 1.4375zm17.40625 0.265625l1.40625 0.15625q-0.53125 1.546875 -1.515625 2.3125q-0.96875 0.75 -2.21875 0.75q-1.359375 0 -2.203125 -0.875q-0.828125 -0.875 -0.828125 -2.453125q0 -1.359375 0.53125 -2.671875q0.546875 -1.3125 1.546875 -1.984375q1.0 -0.6875 2.296875 -0.6875q1.328125 0 2.109375 0.75q0.78125 0.75 0.78125 2.0l-1.390625 0.09375q0 -0.796875 -0.453125 -1.234375q-0.453125 -0.453125 -1.1875 -0.453125q-0.84375 0 -1.46875 0.546875q-0.625 0.53125 -0.984375 1.640625q-0.359375 1.09375 -0.359375 2.109375q0 1.0625 0.46875 1.59375q0.46875 0.53125 1.15625 0.53125q0.6875 0 1.3125 -0.515625q0.640625 -0.53125 1.0 -1.609375zm2.265625 3.03125l1.734375 -8.296875l1.25 0l-0.34375 1.6875q0.640625 -0.953125 1.25 -1.40625q0.609375 -0.46875 1.25 -0.46875q0.421875 0 1.046875 0.296875l-0.578125 1.3125q-0.375 -0.265625 -0.8125 -0.265625q-0.734375 0 -1.515625 0.828125q-0.78125 0.828125 -1.234375 2.984375l-0.703125 3.328125l-1.34375 0zm11.421875 -2.828125l1.375 0.140625q-0.296875 1.03125 -1.359375 1.953125q-1.0625 0.921875 -2.546875 0.921875q-0.921875 0 -1.6875 -0.421875q-0.765625 -0.4375 -1.171875 -1.25q-0.40625 -0.8125 -0.40625 -1.84375q0 -1.359375 0.625 -2.640625q0.640625 -1.28125 1.640625 -1.890625q1.0 -0.625 2.15625 -0.625q1.484375 0 2.375 0.921875q0.890625 0.921875 0.890625 2.515625q0 0.609375 -0.109375 1.25l-6.109375 0q-0.03125 0.234375 -0.03125 0.4375q0 1.15625 0.53125 1.78125q0.53125 0.609375 1.3125 0.609375q0.71875 0 1.421875 -0.46875q0.703125 -0.484375 1.09375 -1.390625zm-4.109375 -2.046875l4.65625 0q0.015625 -0.21875 0.015625 -0.3125q0 -1.0625 -0.53125 -1.625q-0.53125 -0.578125 -1.375 -0.578125q-0.90625 0 -1.65625 0.625q-0.734375 0.625 -1.109375 1.890625zm12.5078125 3.84375q-0.734375 0.625 -1.421875 0.921875q-0.671875 0.296875 -1.4375 0.296875q-1.15625 0 -1.859375 -0.671875q-0.703125 -0.6875 -0.703125 -1.734375q0 -0.703125 0.3125 -1.234375q0.328125 -0.53125 0.84375 -0.859375q0.53125 -0.328125 1.28125 -0.46875q0.484375 -0.09375 1.8125 -0.140625q1.328125 -0.0625 1.90625 -0.28125q0.171875 -0.578125 0.171875 -0.96875q0 -0.484375 -0.359375 -0.765625q-0.5 -0.390625 -1.4375 -0.390625q-0.890625 0 -1.46875 0.390625q-0.5625 0.390625 -0.8125 1.125l-1.4375 -0.125q0.4375 -1.234375 1.390625 -1.890625q0.953125 -0.65625 2.390625 -0.65625q1.546875 0 2.4375 0.734375q0.6875 0.546875 0.6875 1.421875q0 0.65625 -0.1875 1.53125l-0.46875 2.0625q-0.21875 0.984375 -0.21875 1.609375q0 0.390625 0.171875 1.125l-1.421875 0q-0.125 -0.40625 -0.171875 -1.03125zm0.53125 -3.171875q-0.296875 0.109375 -0.640625 0.171875q-0.34375 0.0625 -1.140625 0.140625q-1.234375 0.109375 -1.75 0.28125q-0.5 0.15625 -0.765625 0.53125q-0.25 0.359375 -0.25 0.8125q0 0.59375 0.40625 0.984375q0.421875 0.375 1.171875 0.375q0.703125 0 1.34375 -0.375q0.65625 -0.375 1.03125 -1.03125q0.375 -0.671875 0.59375 -1.890625zm6.0859375 3.046875l-0.234375 1.171875q-0.515625 0.125 -0.984375 0.125q-0.84375 0 -1.34375 -0.421875q-0.375 -0.3125 -0.375 -0.84375q0 -0.28125 0.203125 -1.265625l1.0 -4.8125l-1.109375 0l0.21875 -1.09375l1.125 0l0.421875 -2.046875l1.625 -0.96875l-0.640625 3.015625l1.390625 0l-0.234375 1.09375l-1.375 0l-0.96875 4.578125q-0.171875 0.875 -0.171875 1.046875q0 0.25 0.140625 0.390625q0.140625 0.125 0.46875 0.125q0.46875 0 0.84375 -0.09375zm7.2265625 -1.671875l1.375 0.140625q-0.296875 1.03125 -1.359375 1.953125q-1.0625 0.921875 -2.546875 0.921875q-0.921875 0 -1.6875 -0.421875q-0.765625 -0.4375 -1.171875 -1.25q-0.40625 -0.8125 -0.40625 -1.84375q0 -1.359375 0.625 -2.640625q0.640625 -1.28125 1.640625 -1.890625q1.0 -0.625 2.15625 -0.625q1.484375 0 2.375 0.921875q0.890625 0.921875 0.890625 2.515625q0 0.609375 -0.109375 1.25l-6.109375 0q-0.03125 0.234375 -0.03125 0.4375q0 1.15625 0.53125 1.78125q0.53125 0.609375 1.3125 0.609375q0.71875 0 1.421875 -0.46875q0.703125 -0.484375 1.09375 -1.390625zm-4.109375 -2.046875l4.65625 0q0.015625 -0.21875 0.015625 -0.3125q0 -1.0625 -0.53125 -1.625q-0.53125 -0.578125 -1.375 -0.578125q-0.90625 0 -1.65625 0.625q-0.734375 0.625 -1.109375 1.890625zm14.671875 3.71875l-0.234375 1.171875q-0.515625 0.125 -0.984375 0.125q-0.84375 0 -1.34375 -0.421875q-0.375 -0.3125 -0.375 -0.84375q0 -0.28125 0.203125 -1.265625l1.0 -4.8125l-1.109375 0l0.21875 -1.09375l1.125 0l0.421875 -2.046875l1.625 -0.96875l-0.640625 3.015625l1.390625 0l-0.234375 1.09375l-1.375 0l-0.96875 4.578125q-0.171875 0.875 -0.171875 1.046875q0 0.25 0.140625 0.390625q0.140625 0.125 0.46875 0.125q0.46875 0 0.84375 -0.09375zm1.1328125 1.15625l2.390625 -11.453125l1.421875 0l-0.921875 4.390625q0.796875 -0.765625 1.46875 -1.09375q0.6875 -0.328125 1.40625 -0.328125q1.03125 0 1.59375 0.546875q0.578125 0.53125 0.578125 1.421875q0 0.4375 -0.25 1.609375l-1.03125 4.90625l-1.40625 0l1.046875 -5.03125q0.234375 -1.09375 0.234375 -1.375q0 -0.40625 -0.28125 -0.65625q-0.28125 -0.265625 -0.8125 -0.265625q-0.765625 0 -1.46875 0.40625q-0.6875 0.40625 -1.09375 1.109375q-0.390625 0.6875 -0.71875 2.25l-0.734375 3.5625l-1.421875 0zm14.9921875 -2.828125l1.375 0.140625q-0.296875 1.03125 -1.359375 1.953125q-1.0625 0.921875 -2.546875 0.921875q-0.921875 0 -1.6875 -0.421875q-0.765625 -0.4375 -1.171875 -1.25q-0.40625 -0.8125 -0.40625 -1.84375q0 -1.359375 0.625 -2.640625q0.640625 -1.28125 1.640625 -1.890625q1.0 -0.625 2.15625 -0.625q1.484375 0 2.375 0.921875q0.890625 0.921875 0.890625 2.515625q0 0.609375 -0.109375 1.25l-6.109375 0q-0.03125 0.234375 -0.03125 0.4375q0 1.15625 0.53125 1.78125q0.53125 0.609375 1.3125 0.609375q0.71875 0 1.421875 -0.46875q0.703125 -0.484375 1.09375 -1.390625zm-4.109375 -2.046875l4.65625 0q0.015625 -0.21875 0.015625 -0.3125q0 -1.0625 -0.53125 -1.625q-0.53125 -0.578125 -1.375 -0.578125q-0.90625 0 -1.65625 0.625q-0.734375 0.625 -1.109375 1.890625zm11.359375 4.875l2.390625 -11.453125l1.421875 0l-0.859375 4.09375q0.671875 -0.625 1.21875 -0.875q0.546875 -0.25 1.140625 -0.25q1.171875 0 1.9375 0.875q0.78125 0.859375 0.78125 2.515625q0 1.09375 -0.3125 2.015625q-0.3125 0.90625 -0.78125 1.53125q-0.453125 0.625 -0.953125 1.0q-0.484375 0.359375 -1.0 0.546875q-0.515625 0.1875 -0.984375 0.1875q-0.828125 0 -1.453125 -0.4375q-0.625 -0.4375 -0.96875 -1.328125l-0.328125 1.578125l-1.25 0zm2.09375 -3.40625l0 0.265625q0 1.0625 0.5 1.625q0.515625 0.546875 1.265625 0.546875q0.75 0 1.359375 -0.515625q0.625 -0.53125 1.015625 -1.625q0.40625 -1.109375 0.40625 -2.03125q0 -1.046875 -0.5 -1.625q-0.5 -0.578125 -1.25 -0.578125q-0.765625 0 -1.40625 0.59375q-0.640625 0.578125 -1.0625 1.8125q-0.328125 0.90625 -0.328125 1.53125zm12.8984375 0.578125l1.375 0.140625q-0.296875 1.03125 -1.359375 1.953125q-1.0625 0.921875 -2.546875 0.921875q-0.921875 0 -1.6875 -0.421875q-0.765625 -0.4375 -1.171875 -1.25q-0.40625 -0.8125 -0.40625 -1.84375q0 -1.359375 0.625 -2.640625q0.640625 -1.28125 1.640625 -1.890625q1.0 -0.625 2.15625 -0.625q1.484375 0 2.375 0.921875q0.890625 0.921875 0.890625 2.515625q0 0.609375 -0.109375 1.25l-6.109375 0q-0.03125 0.234375 -0.03125 0.4375q0 1.15625 0.53125 1.78125q0.53125 0.609375 1.3125 0.609375q0.71875 0 1.421875 -0.46875q0.703125 -0.484375 1.09375 -1.390625zm-4.109375 -2.046875l4.65625 0q0.015625 -0.21875 0.015625 -0.3125q0 -1.0625 -0.53125 -1.625q-0.53125 -0.578125 -1.375 -0.578125q-0.90625 0 -1.65625 0.625q-0.734375 0.625 -1.109375 1.890625zm7.0546875 2.03125l1.40625 -0.078125q0 0.609375 0.1875 1.046875q0.1875 0.421875 0.6875 0.703125q0.515625 0.265625 1.1875 0.265625q0.9375 0 1.40625 -0.375q0.46875 -0.375 0.46875 -0.890625q0 -0.359375 -0.28125 -0.6875q-0.296875 -0.328125 -1.421875 -0.8125q-1.109375 -0.484375 -1.421875 -0.671875q-0.53125 -0.328125 -0.796875 -0.75q-0.265625 -0.4375 -0.265625 -1.0q0 -0.984375 0.78125 -1.6875q0.78125 -0.703125 2.1875 -0.703125q1.5625 0 2.375 0.71875q0.828125 0.71875 0.859375 1.90625l-1.390625 0.09375q-0.03125 -0.75 -0.53125 -1.1875q-0.5 -0.4375 -1.40625 -0.4375q-0.734375 0 -1.140625 0.34375q-0.40625 0.328125 -0.40625 0.71875q0 0.390625 0.34375 0.6875q0.234375 0.203125 1.21875 0.625q1.625 0.703125 2.046875 1.109375q0.671875 0.640625 0.671875 1.578125q0 0.609375 -0.390625 1.203125q-0.375 0.59375 -1.15625 0.953125q-0.765625 0.359375 -1.828125 0.359375q-1.4375 0 -2.4375 -0.71875q-1.015625 -0.703125 -0.953125 -2.3125zm11.171875 1.6875l-0.234375 1.171875q-0.515625 0.125 -0.984375 0.125q-0.84375 0 -1.34375 -0.421875q-0.375 -0.3125 -0.375 -0.84375q0 -0.28125 0.203125 -1.265625l1.0 -4.8125l-1.109375 0l0.21875 -1.09375l1.125 0l0.421875 -2.046875l1.625 -0.96875l-0.640625 3.015625l1.390625 0l-0.234375 1.09375l-1.375 0l-0.96875 4.578125q-0.171875 0.875 -0.171875 1.046875q0 0.25 0.140625 0.390625q0.140625 0.125 0.46875 0.125q0.46875 0 0.84375 -0.09375zm8.890625 0l-0.234375 1.171875q-0.515625 0.125 -0.984375 0.125q-0.84375 0 -1.34375 -0.421875q-0.375 -0.3125 -0.375 -0.84375q0 -0.28125 0.203125 -1.265625l1.0 -4.8125l-1.109375 0l0.21875 -1.09375l1.125 0l0.421875 -2.046875l1.625 -0.96875l-0.640625 3.015625l1.390625 0l-0.234375 1.09375l-1.375 0l-0.96875 4.578125q-0.171875 0.875 -0.171875 1.046875q0 0.25 0.140625 0.390625q0.140625 0.125 0.46875 0.125q0.46875 0 0.84375 -0.09375zm7.2265625 -1.671875l1.375 0.140625q-0.296875 1.03125 -1.359375 1.953125q-1.0625 0.921875 -2.546875 0.921875q-0.921875 0 -1.6875 -0.421875q-0.765625 -0.4375 -1.171875 -1.25q-0.40625 -0.8125 -0.40625 -1.84375q0 -1.359375 0.625 -2.640625q0.640625 -1.28125 1.640625 -1.890625q1.0 -0.625 2.15625 -0.625q1.484375 0 2.375 0.921875q0.890625 0.921875 0.890625 2.515625q0 0.609375 -0.109375 1.25l-6.109375 0q-0.03125 0.234375 -0.03125 0.4375q0 1.15625 0.53125 1.78125q0.53125 0.609375 1.3125 0.609375q0.71875 0 1.421875 -0.46875q0.703125 -0.484375 1.09375 -1.390625zm-4.109375 -2.046875l4.65625 0q0.015625 -0.21875 0.015625 -0.3125q0 -1.0625 -0.53125 -1.625q-0.53125 -0.578125 -1.375 -0.578125q-0.90625 0 -1.65625 0.625q-0.734375 0.625 -1.109375 1.890625zm12.5078125 3.84375q-0.734375 0.625 -1.421875 0.921875q-0.671875 0.296875 -1.4375 0.296875q-1.15625 0 -1.859375 -0.671875q-0.703125 -0.6875 -0.703125 -1.734375q0 -0.703125 0.3125 -1.234375q0.328125 -0.53125 0.84375 -0.859375q0.53125 -0.328125 1.28125 -0.46875q0.484375 -0.09375 1.8125 -0.140625q1.328125 -0.0625 1.90625 -0.28125q0.171875 -0.578125 0.171875 -0.96875q0 -0.484375 -0.359375 -0.765625q-0.5 -0.390625 -1.4375 -0.390625q-0.890625 0 -1.46875 0.390625q-0.5625 0.390625 -0.8125 1.125l-1.4375 -0.125q0.4375 -1.234375 1.390625 -1.890625q0.953125 -0.65625 2.390625 -0.65625q1.546875 0 2.4375 0.734375q0.6875 0.546875 0.6875 1.421875q0 0.65625 -0.1875 1.53125l-0.46875 2.0625q-0.21875 0.984375 -0.21875 1.609375q0 0.390625 0.171875 1.125l-1.421875 0q-0.125 -0.40625 -0.171875 -1.03125zm0.53125 -3.171875q-0.296875 0.109375 -0.640625 0.171875q-0.34375 0.0625 -1.140625 0.140625q-1.234375 0.109375 -1.75 0.28125q-0.5 0.15625 -0.765625 0.53125q-0.25 0.359375 -0.25 0.8125q0 0.59375 0.40625 0.984375q0.421875 0.375 1.171875 0.375q0.703125 0 1.34375 -0.375q0.65625 -0.375 1.03125 -1.03125q0.375 -0.671875 0.59375 -1.890625zm2.7734375 4.203125l1.734375 -8.296875l1.40625 0l-0.28125 1.359375q0.78125 -0.875 1.40625 -1.203125q0.625 -0.34375 1.34375 -0.34375q0.78125 0 1.296875 0.40625q0.515625 0.40625 0.6875 1.140625q0.625 -0.78125 1.328125 -1.15625q0.703125 -0.390625 1.46875 -0.390625q1.046875 0 1.5625 0.5q0.515625 0.484375 0.515625 1.375q0 0.375 -0.171875 1.265625l-1.125 5.34375l-1.40625 0l1.140625 -5.484375q0.140625 -0.671875 0.140625 -0.96875q0 -0.40625 -0.265625 -0.640625q-0.25 -0.234375 -0.71875 -0.234375q-0.625 0 -1.28125 0.390625q-0.65625 0.375 -1.03125 1.0q-0.359375 0.625 -0.625 1.90625l-0.84375 4.03125l-1.421875 0l1.171875 -5.609375q0.125 -0.5625 0.125 -0.8125q0 -0.40625 -0.25 -0.65625q-0.25 -0.25 -0.65625 -0.25q-0.609375 0 -1.265625 0.390625q-0.65625 0.375 -1.078125 1.0625q-0.40625 0.6875 -0.671875 1.953125l-0.828125 3.921875l-1.40625 0z" fill-rule="nonzero"></path><path fill="#000000" fill-opacity="0.0" d="m8.528872 9.443569l853.95276 0l0 122.23622l-853.95276 0z" fill-rule="evenodd"></path><path stroke="#999999" stroke-width="1.0" stroke-linejoin="round" stroke-linecap="butt" stroke-dasharray="8.0,3.0" d="m8.528872 9.443569l853.95276 0l0 122.23622l-853.95276 0z" fill-rule="evenodd"></path></g></svg>

